<?xml version="1.0" standalone="no"?>
<!DOCTYPE svg PUBLIC "-//W3C//DTD SVG 20010904//EN"
 "http://www.w3.org/TR/2001/REC-SVG-20010904/DTD/svg10.dtd">
<svg version="1.0" xmlns="http://www.w3.org/2000/svg"
 width="90.000000pt" height="40.000000pt" viewBox="0 0 90.000000 40.000000"
 preserveAspectRatio="xMidYMid meet">

<g transform="translate(0.000000,40.000000) scale(0.100000,-0.100000)"
fill="#000000" stroke="none">
<path d="M0 200 l0 -200 450 0 450 0 0 200 0 200 -450 0 -450 0 0 -200z m497
98 c14 8 34 -1 96 -44 43 -30 83 -51 89 -48 5 3 8 -2 7 -12 -2 -11 0 -24 3
-30 5 -7 -4 -11 -23 -12 -24 -1 -28 2 -20 12 6 8 9 20 5 27 -5 14 -106 83
-137 95 -33 12 -16 -12 27 -39 36 -22 43 -32 38 -50 -6 -22 -25 -47 -36 -47
-13 0 -5 50 10 58 12 7 4 16 -40 45 -31 20 -59 37 -63 37 -3 0 -35 -19 -70
-41 -35 -23 -66 -39 -69 -36 -3 3 4 10 15 17 12 6 21 20 21 31 0 21 31 40 38
21 2 -7 14 -4 35 8 22 14 35 16 43 9 9 -7 19 -7 31 -1z m-401 -107 c1 -17 4
-35 8 -39 8 -7 13 -8 41 -11 8 0 15 -10 15 -21 0 -32 -43 -26 -73 10 -33 39
-42 67 -26 86 18 22 34 11 35 -25z m717 23 c-4 -10 0 -12 11 -8 24 9 19 -11
-6 -29 -23 -14 -23 -15 -4 -36 26 -29 12 -40 -17 -13 l-24 22 -18 -20 c-18
-20 -45 -27 -45 -12 0 5 9 17 20 27 23 21 26 40 5 32 -25 -10 -28 13 -3 32 28
23 89 26 81 5z m-639 -13 c3 -5 -4 -12 -17 -15 l-22 -7 25 -11 25 -11 -24 -5
c-28 -5 -43 15 -30 40 10 19 34 24 43 9z m70 -27 c5 -18 2 -21 -23 -21 -30 0
-30 0 -15 30 16 30 27 28 38 -9z m60 -16 c6 -5 2 -8 -11 -8 -17 0 -23 6 -23
23 0 33 14 44 19 15 1 -12 8 -26 15 -30z m46 28 c0 -13 6 -27 13 -29 6 -3 2
-6 -10 -6 -19 -1 -23 4 -23 29 0 17 5 30 10 30 6 0 10 -11 10 -24z m130 -22
c0 -6 -11 -11 -25 -11 -28 0 -31 8 -14 39 11 21 12 21 25 3 8 -10 14 -24 14
-31z m140 16 c0 -16 -4 -30 -10 -30 -11 0 -14 43 -3 53 11 12 13 8 13 -23z"/>
<path d="M760 205 c0 -8 5 -15 10 -15 6 0 10 7 10 15 0 8 -4 15 -10 15 -5 0
-10 -7 -10 -15z"/>
</g>
</svg>
